<?xml version="1.0" encoding="UTF-8"?>
<!DOCTYPE svg PUBLIC "-//W3C//DTD SVG 1.1//EN" "http://www.w3.org/Graphics/SVG/1.1/DTD/svg11.dtd">
<!-- Creator: CorelDRAW -->
<svg xmlns="http://www.w3.org/2000/svg" xml:space="preserve" width="945px" height="1063px" style="shape-rendering:geometricPrecision; text-rendering:geometricPrecision; image-rendering:optimizeQuality; fill-rule:evenodd; clip-rule:evenodd"
viewBox="0 0 945 1063"
 xmlns:xlink="http://www.w3.org/1999/xlink">
 <defs>
  <style type="text/css">
   <![CDATA[
    .str4 {stroke:#373435;stroke-width:2.3622}
    .str0 {stroke:#0B6E45;stroke-width:2.3622}
    .str3 {stroke:#A15D5D;stroke-width:2.3622}
    .str1 {stroke:#BB706D;stroke-width:2.3622}
    .str2 {stroke:#C48E89;stroke-width:2.3622}
    .fil0 {fill:#0B6E45}
    .fil2 {fill:#18161A}
    .fil12 {fill:#19171B}
    .fil16 {fill:#601F1F}
    .fil17 {fill:#632222}
    .fil7 {fill:#A15D5D}
    .fil13 {fill:#A25E5E}
    .fil18 {fill:#A35F5F}
    .fil4 {fill:#B9706A}
    .fil11 {fill:#B9736D}
    .fil6 {fill:#B97972}
    .fil14 {fill:#BA706B}
    .fil8 {fill:#BA716B}
    .fil1 {fill:#BB706D}
    .fil15 {fill:#BB746F}
    .fil3 {fill:#BC716C}
    .fil9 {fill:#BD716F}
    .fil20 {fill:#BD7570}
    .fil5 {fill:#BE857E}
    .fil19 {fill:#C48E89}
    .fil10 {fill:#FEFEFE}
   ]]>
  </style>
 </defs>
 <g id="Camada_x0020_1">
  <metadata id="CorelCorpID_0Corel-Layer"/>
  <g id="_273485912">
   <path id="_273489872" class="fil0 str0" d="M461.694 989.258c35.0327,7.21063 69.1394,8.19803 102.158,1.84724l3.70394 1.25079c-35.713,9.60472 -71.0929,8.69646 -108.467,-1.49173l2.60433 -1.6063z"/>
   <path id="_273489776" class="fil1" d="M712.416 710.868l37.474 49.3252c-5.62913,-2.92323 -4.65827,-5.15079 -7.94055,-12.2528 -8.96811,-19.415 -23.2972,-23.622 -29.5335,-37.0724zm-321.722 64.0453c1.98898,-33.3591 7.8378,-28.3406 43.1598,-52.8378l56.276 -43.9654c-5.54409,10.6087 -15.4335,16.4114 -23.6598,25.6819 -16.4421,18.5173 -32.2429,25.1965 -55.7953,42.1146 -7.64409,5.49213 -7.32165,2.77677 -11.928,12.4535 -2.15669,4.53189 -6.99331,12.9201 -8.05276,16.5531zm44.2854 -234.956c23.1248,-7.73622 32.9232,22.8343 11.987,28.9665 -23.0646,6.75709 -33.5705,-21.7465 -11.987,-28.9665zm252.269 -11.1177c23.0114,-7.49646 32.4744,22.7787 11.9197,28.9394 -23.25,6.97087 -33.8362,-21.7996 -11.9197,-28.9394zm-34.0488 223.317c10.4504,-1.15276 40.8744,-1.86378 50.8949,-0.337795 11.8701,1.80945 23.4378,17.3138 18.4453,32.2535 -8.00551,0.669685 -6.33071,-0.972047 -12.0969,-2.34213l-24.385 7.95236 -3.22677 14.6965c-2.04213,19.7031 -13.9264,29.876 -16.037,36.026 -2.00433,5.84291 -5.62087,21.7346 -5.53346,27.5587 1.31811,17.2228 -17.2937,29.7083 -32.1484,35.0681 -20.0102,7.22126 -43.3228,6.91535 -65.0988,5.3752 -28.3689,-2.00669 -31.8898,-9.92126 -43.865,-26.1791 -5.48386,-7.44331 -24.2728,-36.0154 -25.1374,-42.8421 -0.284646,-7.7563 -3.03661,-13.1008 -10.3807,-17.752 -8.0374,-5.08583 -5.9185,-1.07008 -6.41102,-9.54449l-3.97677 -5.76732c-6.32598,-7.37598 -11.2772,-12.072 -15.2339,-20.4803l-15.0543 -2.98346 -19.2531 14.1496c-9.86339,-11.589 -6.7689,-31.2591 1.97244,-40.9606 13.9122,-15.4429 22.3217,-7.51417 42.8823,-5.10472 29.2169,3.42165 82.5555,0.788976 114.194,0.643701 4.19173,-3.13228 5.77677,1.15866 -0.186614,-4.19055 -7.09606,-6.36142 -39.8717,-7.16339 -49.5945,-9.15118 -18.3071,-3.74055 -34.1504,-13.9831 -33.8362,-33.5787l39.4724 26.1484c29.2252,3.80906 28.8933,-0.336614 51.1441,14.8169 14.589,9.9378 34.1291,14.2051 49.0689,1.87559 19.2059,-15.848 8.7685,-15.7866 39.4441,-26.4709 22.1681,-7.72087 7.83425,-30.6224 0.304724,-42.2126 -21.7476,-33.4665 -29.3882,-52.2047 -39.2339,-92.0669 -5.00315,-20.2512 -6.13819,-33.2634 -19.4457,-46.5189l27.7665 57.1642c5.81929,22.6087 12.1902,42.7913 22.7657,61.4563 6.07795,10.7315 29.4177,43.8059 28.6205,54.9496 -1.60984,22.526 -36.0319,12.3059 -46.8402,38.3492zm-318.47 -226.509c4.67244,-11.602 24.9059,-36.3898 33.313,-47.3953 10.663,-13.9594 10.8461,-19.1811 21.463,-20.2181 36.835,-3.59291 104.056,5.76024 140.581,9.42874 -10.4031,11.4331 -29.4909,33.1642 -41.8287,41.0315l-85.3689 -22.8602c-16.9217,0.784252 -31.3016,6.10039 -41.6539,13.9157 -10.2508,7.74094 -18.2894,21.0602 -26.5051,26.0976zm369.659 404.075c3.06732,-2.52874 11.2004,-16.5154 13.1752,-19.9122l51.2114 -85.7752c4.87441,-8.2252 6.80079,-15.085 10.2661,-25.3358l26.5465 -76.4669c1.34409,-3.92598 3.39685,-8.81457 4.19882,-12.6543l8.61614 -79.1858c1.00157,-9.12638 24.0201,-63.6661 29.4366,-73.624 2.25354,-4.13622 4.08071,-6.57992 6.40866,-10.4705 1.06417,-1.77992 2.45433,-4.20236 3.56811,-5.80394l1.63819 -2.26063c2.0563,-2.60551 0.584646,-1.1563 2.90079,-3.22323 -3.03189,-6.76654 -6.96024,-15.6957 -12.8315,-20.1874 -1.00748,8.21929 3.6685,-0.570472 -2.53937,4.86614 -15.1866,-4.06417 -24.4146,-4.21772 -30.9283,-13.2638 -4.28504,-1.25315 -2.74961,4.23425 -4.64173,-5.55354l-7.86614 0c-0.651969,-8.8689 1.57795,-2.62323 -3.22441,-7.83071 -0.0177165,-0.0177165 -5.19094,-4.45276 -7.14803,-6.51496l14.3846 36.3886 -60.9496 -30.2291c-12.0555,-1.71732 -60.0496,23.752 -67.4256,26.1118l-12.1559 -24.8291 -4.08425 -4.14567c-5.94331,-5.0185 -72.8693,-16.6701 -75.7878,-16.6701l7.58268 -13.0559 -36.0201 -3.72992 5.68701 -11.1909 -13.272 -1.86614 8.17795 -8.77795 -17.6563 -0.54685 8.17559 -8.78031 -15.7193 -0.544488 5.64685 -7.46102 -13.585 -1.86614 4.10669 -5.59606 -15.1866 0 2.34921 -6.34606c0.0271654,-0.0614173 0.245669,-0.39685 0.275197,-0.458268l0.55748 -1.00394c0.0295276,-0.0862205 0.184252,-0.511417 0.210236,-0.605906 0.0271654,-0.108661 0.132283,-0.597638 0.154724,-0.714567l-11.713 -15.0543c0.465354,-16.0748 -9.46772,-15.1276 -9.45,-27.078 0,-0.19252 0.114567,-0.715748 0.122835,-0.903543 0.00944882,-0.187795 0.134646,-0.709843 0.146457,-0.894094l-0.15 -3.85748c-0.0389764,-0.24685 -0.146457,-0.819685 -0.199606,-1.07126l-8.24764 -9.67205c-1.01339,-0.831496 -2.39055,-2.45433 -2.78976,-2.90669l9.16535 -9.9437 30.0189 1.86614 4.73622 -11.8831 -13.5567 1.05118 -0.154724 -1.9252c-1.6122,-10.3335 -6.40394,-8.60669 -11.1059,-10.728 6.02126,-12.2067 2.26181,-8.61378 0.635433,-15.4276 -1.21535,-5.10827 -1.99961,-18.8303 -4.80236,-21.9909l-1.52717 -1.18583c-2.96929,-1.54606 -1.41969,-0.870472 -5.53583,-0.993307 1.57441,-10.5921 2.2122,-8.41299 0.335433,-16.2661 -0.0732283,-0.304724 -0.265748,-0.793701 -0.325984,-1.09488l-0.514961 -8.12717c-0.0590551,-0.458268 -0.152362,-1.01929 -0.231496,-1.45866l-0.660236 -2.54409c-1.84724,-5.82165 -2.95984,-5.35748 -4.29094,-5.94567l6.35315 -2.66575c-17.6764,0.00944882 -89.7992,-21.6319 -104.124,-35.3976l-20.0646 -26.9776c-44.5713,5.80512 -84.5374,44.413 -95.6882,92.3752 -5.97638,25.7031 -13.4173,49.3807 -19.0925,74.5051 -8.9185,39.4783 -4.11732,47.4154 17.0965,69.1654 37.2744,38.2205 -29.8016,99.4146 -31.1244,112.752l8.92795 154.893c2.10236,16.6748 43.0665,62.2134 51.8646,91.1197 20.3327,66.8079 61.9866,128.487 125.171,160.338 34.0831,17.1827 96.5374,50.0339 141.987,49.3181 29.1614,-0.46063 53.0894,18.1217 79.1764,-0.922441 12.724,-9.29055 45.3343,-36.2846 55.3594,-41.3539z"/>
   <path id="_273490208" class="fil2" d="M167.854 462.162c29.8311,12.2421 46.1008,42.3661 56.1106,77.2701 7.23898,25.2472 12.3177,64.4882 6.72402,91.3039 -2.39173,11.4579 -0.497244,20.622 -0.324803,32.3433l1.41969 37.9299c1.95118,9.5563 66.4701,149.362 73.1965,161.655 18.1063,33.085 40.8437,65.4531 66.176,93.4346 9.6437,10.6488 16.9264,19.8484 29.4567,30.7287 2.99173,2.59488 5.67047,3.91181 8.0185,6.59055l9.69685 4.29567c8.1189,2.9811 16.6252,9.73937 22.8307,11.7591 13.8543,1.79291 26.3799,11.1165 39.0272,17.9303 24.8988,13.4102 60.3343,26.3811 89.6327,25.4126 19.911,-0.659055 33.1382,-7.11142 49.2555,-8.7437 38.739,-18.672 26.3587,-2.34331 57.9543,-41.7165 11.2984,-14.0787 10.4563,-12.9154 15.985,-32.7661 2.64331,-9.49252 10.8142,-32.1803 11.3764,-39.8669 -10.0252,5.06929 -42.6354,32.0634 -55.3594,41.3539 -26.087,19.0441 -50.015,0.461811 -79.1764,0.922441 -45.45,0.715748 -107.904,-32.1354 -141.987,-49.3181 -63.1843,-31.8508 -104.838,-93.5303 -125.171,-160.338 -8.79803,-28.9063 -49.7622,-74.4449 -51.8646,-91.1197l-8.92795 -154.893c1.32283,-13.337 68.3988,-74.5311 31.1244,-112.752 -21.2138,-21.75 -26.015,-29.687 -17.0965,-69.1654 5.6752,-25.1244 13.1161,-48.802 19.0925,-74.5051 11.1508,-47.9622 51.1169,-86.5701 95.6882,-92.3752l20.0646 26.9776c14.3244,13.7657 86.4472,35.4071 104.124,35.3976 7.21772,1.84016 18.2858,2.15079 23.1803,5.44606l48.7264 0.934252 49.5945 -4.13268 56.7331 -10.0831c4.74685,-3.54449 39.8374,-13.9559 49.7551,-17.6539 15.4488,-5.7626 33.0803,-13.4008 45.9579,-19.937 -11.9386,-51.9449 -201.38,-161.086 -255.601,-168.315 -46.3878,-6.18425 -53.6657,-10.0299 -106.058,0.779528 -24.4748,5.05157 -62.9315,19.3264 -83.8961,33.1051 -30.5492,20.0823 -60.9803,41.876 -83.4331,70.8614 -5.46142,7.05 -11.185,14.9244 -16.2543,23.1768l-28.4091 48.522c-38.2736,61.4327 -18.4429,74.0728 -26.5417,126.83l-6.55276 109.32c0.011811,14.9008 2.99646,22.0866 5.75315,33.4004z"/>
   <path id="_273489824" class="fil3" d="M162.035 643.121c-23.9953,-5.32913 -34.5933,-16.4055 -42.0661,-38.5949l4.31811 -71.3799c7.4185,3.84921 21.5232,19.7634 28.5295,26.7413 -9.38268,4.84488 -16.272,8.26772 -18.4287,14.9409 -3.0189,9.3378 -4.56614,21.0732 -0.539764,28.9854 10.598,20.8157 23.25,29.9138 28.187,39.3071zm-79.4965 -121.064l0 -12.1028c0.10748,-1.4752 0.252756,-2.92795 0.440551,-4.34646 0.806693,-6.07323 1.74921,-12.6732 5.71654,-17.224 1.35472,4.77165 -0.940157,2.5748 3.32126,4.27087l95.1969 45.7465c14.2098,29.0894 3.25276,37.4362 10.8402,60.1724 4.07008,12.1937 18.952,38.5287 28.5815,37.9146 0.080315,10.578 -0.961417,18.1524 3.72756,26.5913l1.41969 37.9299 -4.85669 -4.05591 -23.0504 26.4378c-16.7894,-5.48268 -18.7228,-4.3063 -30.8362,-16.2933 -55.813,-55.2295 -79.8106,-103.893 -89.9976,-180.045 -0.217323,-1.62283 -0.385039,-3.29528 -0.50315,-4.99606z"/>
   <path id="_273489800" class="fil4 str1" d="M564.083 328.961l0 6.47126 -18.9591 1.86378c-2.88661,13.0547 -1.38661,11.178 -27.1713,14.3043 -0.964961,9.41693 1.27913,3.03543 3.84331,13.2567l0.520866 2.53346c0.264567,3.20906 -0.262205,2.82638 -1.82953,3.49843 3.32126,0 5.05039,-0.16063 8.0126,-0.47126l9.04134 -1.39488c-2.9126,8.56299 0.614173,3.08622 -4.74685,6.57992l-2.82756 -0.985039c4.45512,0.962598 1.25551,0.0732283 3.9378,2.27835 7.45512,6.13346 2.39882,-0.233858 2.67638,4.52008 0.159449,2.74961 0.18189,0.729921 -0.927165,0.66378 7.65591,1.34528 3.50906,0.687402 9.07795,1.16457 0.629528,0.0555118 13.7197,1.19173 8.50276,9.16063 -0.0566929,0.0874016 -0.401575,0.451181 -0.466535,0.517323l15.1063 -1.51772 -4.89685 5.94094c-6.82323,8.09173 1.15748,-6.85984 -1.33701,2.2122 -1.34409,4.88976 -1.27913,3.3815 -1.89449,3.51496l-1.34173 -0.477165 17.0539 -1.86378c-2.41535,6.71457 -1.49764,6.97913 -7.57205,7.45866l15.1571 0c-2.41654,6.71457 -1.49882,6.9815 -7.57559,7.46102l17.0539 -1.86496c-1.59685,6.00945 0.275197,9.15472 -9.47008,11.1909l17.0539 -1.86378c-3.27283,12.3142 2.90197,2.3374 -6.54921,11.1106 -0.70748,0.656693 -6.38858,1.93228 -0.577559,2.09764l29.8866 1.71142c7.86614,4.95945 1.19173,-5.59724 2.52992,3.54685 0.519685,3.54685 -4.16693,7.32874 -6.33189,9.51024 1.8626,-2.50748 23.9976,2.85945 34.0429,4.27323 14.4472,2.0315 22.2272,4.66654 36.1051,8.7815 -1.40433,10.7055 -0.232677,8.13307 -7.56378,13.8697 31.1209,-6.54094 64.4339,-17.4142 98.4661,-18.8728 0.11811,-2.72008 -0.13937,-5.36693 -0.13937,-5.36693l-0.709843 -3.64134c-2.32205,-3.39921 -6.73583,3.03425 -0.934252,-9.90354 1.57677,-3.51378 1.37953,-2.62205 1.58386,-4.13504l-1.17638 -6.0248c-0.85748,-7.34528 0.426378,-3.58701 4.25906,-9.64252 6.18307,-9.75709 -3.82205,1.22717 3.82913,-9.51496 3.72165,-5.22283 10.2744,-6.45591 0.898819,-13.552 5.26417,-8.17677 5.40472,-0.848031 8.62559,-10.761 4.30748,-13.2555 3.47717,0.379134 9.34606,-18.6697l-1.37953 -19.813c-4.99724,1.32165 0.121654,-0.134646 -1.73504,3.84803 -2.05394,4.40787 -0.617717,1.54724 -1.89921,3.37559 -0.31063,0.444094 -2.32677,2.76024 -2.67402,3.16063 -12.0555,13.9075 -7.06654,7.58858 -15.9803,16.2307 -7.69016,7.45512 -1.49409,2.23465 -2.21929,4.36654 -2.04921,6.02244 -7.83543,3.93898 -11.9799,14.465 -1.44449,3.66732 -16.1244,14.7638 -19.5059,16.402 -9.88701,4.78701 4.61929,-1.88031 -2.58189,1.11969l-29.2134 14.6339c1.32992,-2.18976 1.02992,-2.50512 0.367323,-5.59488 -0.362598,-0.113386 -0.967323,-0.623622 -1.10669,-0.284646l-11.576 -2.6811c-15.052,-3.77126 -37.2862,-3.90118 -53.6728,-4.86614 6.69094,-0.614173 9.27047,-6.70157 13.2697,-12.6839 -7.18583,0.431102 -8.94094,1.56614 -16.5366,1.92874 -18.9709,0.0968504 -13.9276,4.80945 -4.31693,-9.39094l-17.0634 1.49409c5.13071,-0.468898 5.44134,-2.82638 9.47953,-8.95512l-17.0634 3.35906c1.46457,-2.08583 1.47165,0.271654 7.58386,-8.95394 -7.88386,0.475984 -11.9504,0.983858 -16.6843,5.59488 1.74213,-4.1374 -0.994488,3.56457 2.34921,-2.75551 0.0850394,-0.16063 0.340157,-0.69685 0.412205,-0.865748l1.41732 -9.43346 -13.272 3.54449 -2.65984 -11.0055c-9.94016,0.170079 -8.23465,-0.152362 -16.2992,5.41063l-14.3185 -10.2c-3.5315,-3.68031 -5.34449,-2.02677 -4.8437,-5.66575 1.10669,-8.02913 -0.323622,-2.17913 2.74843,-4.23425 8.59134,-5.74724 7.73386,0.735827 13.3323,-8.43425 0.542126,-3.76063 1.26969,-7.20591 4.60984,-9.36496 2.87598,-1.86142 1.73976,-0.374409 5.40118,-2.10591 5.26417,-2.49213 2.20984,-0.374409 5.22165,-3.45827 -0.238583,-0.223228 -0.473622,-0.687402 -0.565748,-0.796063 -0.092126,-0.109843 -0.48189,-0.640157 -0.6,-0.768898 -0.116929,-0.122835 -0.488976,-0.58937 -0.629528,-0.719291l-1.4374 -1.20945c-7.84843,-4.34291 -5.81811,3.53504 -25.9913,6.3378z"/>
   <path id="_273490064" class="fil5 str2" d="M673.134 222.072c6.16417,4.8378 2.52283,2.80866 -4.12677,7.59803l-28.4929 17.9764c-0.250394,-0.406299 -0.95315,0.576378 -1.41024,0.896457 -25.5343,-15.9496 -22.7823,-7.90394 -22.7031,-16.3878l-49.5945 4.13268c-3.95669,2.57953 -0.842126,0.200787 -6.30591,2.1874l-4.72323 1.8437c25.1362,25.2921 23.3717,14.0398 36.5339,20.8417 0.362598,0.187795 0.817323,0.488976 1.16457,0.689764 0.485433,0.282283 1.72559,1.24016 2.20748,1.53307 0.349606,0.209055 0.767717,0.559843 1.12913,0.76063 4.68661,2.60079 18.1843,3.66496 24.1559,4.56614l0 3.34606c18.5776,0.0685039 18.2339,4.40787 43.6075,16.4976 4.6122,-3.15 7.03937,-4.83071 11.8157,-8.65039 5.37874,-4.30276 7.27559,-6.26811 12.137,-10.435 4.96654,-4.25906 3.66614,-2.57362 9.52559,-5.58661l3.65197 -1.9878c19.2437,-11.4236 13.9665,-4.55079 27.7134,-15.6248 8.28898,-6.67913 9.03307,-4.24488 20.6067,-7.78346 0.464173,-0.142913 0.929528,-0.349606 1.3937,-0.493701l11.8051 -3.31063c9.6378,-3.16299 5.85945,-2.52165 20.5807,-1.28386l6.25866 27.4287 2.82165 11.3268c3.05787,21.4063 8.73661,41.7638 8.85354,63.0283l2.57717 12.9354 1.37953 19.813c4.74449,10.05 4.34882,65.6882 7.95591,81.7299l2.5937 0c0,-42.7051 -11.9799,-226.931 -47.3988,-265.179 -12.8776,6.53622 -30.5091,14.1744 -45.9579,19.937 -9.91772,3.69803 -45.0083,14.1094 -49.7551,17.6539z"/>
   <path id="_273489032" class="fil6 str1" d="M566.806 236.288l-48.7264 -0.934252 -7.84606 1.47165c1.05236,9.6378 1.29921,13.5106 3.31417,17.6764 2.71417,5.61024 5.6315,11.2831 10.565,15.874l5.59843 5.70591c4.40669,3.59291 6.1689,2.82402 10.4008,5.01378l8.70591 6.15236c1.82008,1.13031 1.43504,1.24252 5.22402,2.64094 4.22598,1.5626 7.09134,1.94528 13.0075,1.94528l-9.48071 -0.112205 0.337795 5.03858 17.0657 0.0661417c-4.45157,5.15433 -3.66969,5.2122 -10.3547,7.24016l0 2.72835c21.6626,-0.322441 9.76299,-1.04291 20.4827,-3.25866 3.24449,-0.669685 5.81811,-0.270472 8.9374,0.170079 28.4126,4.00039 -4.03346,-2.8311 30.822,-0.539764 12.2421,0.80315 22.7953,0.634252 36.0213,1.3937 27.2705,1.5685 20.4508,14.9008 39.9803,-2.42953 8.20748,-7.28031 5.17559,-1.73622 12.9839,-5.97047 5.44606,-2.95394 9.00827,-10.5933 19.2555,-14.5559l11.7059 -5.24291c0.402756,-0.185433 0.924803,-0.370866 1.32756,-0.555118l2.64331 -1.12795c10.5177,-5.28307 27.287,-14.1874 39.0602,-15.6791l1.19646 0.654331c0.0708661,-0.464173 0.725197,0.751181 1.02992,1.17283l-6.25866 -27.4287c-14.7213,-1.2378 -10.9429,-1.87913 -20.5807,1.28386l-11.8051 3.31063c-0.464173,0.144094 -0.929528,0.350787 -1.3937,0.493701 -11.5736,3.53858 -12.3177,1.10433 -20.6067,7.78346 -13.7469,11.074 -8.46969,4.20118 -27.7134,15.6248l-3.65197 1.9878c-5.85945,3.01299 -4.55906,1.32756 -9.52559,5.58661 -4.86142,4.16693 -6.75827,6.13228 -12.137,10.435 -4.77638,3.81969 -7.20354,5.50039 -11.8157,8.65039 -25.3736,-12.0898 -25.0299,-16.4291 -43.6075,-16.4976l0 -3.34606c-5.97165,-0.901181 -19.4693,-1.96535 -24.1559,-4.56614 -0.361417,-0.200787 -0.779528,-0.551575 -1.12913,-0.76063 -0.48189,-0.292913 -1.72205,-1.25079 -2.20748,-1.53307 -0.347244,-0.200787 -0.801969,-0.501969 -1.16457,-0.689764 -13.1622,-6.80197 -11.3976,4.45039 -36.5339,-20.8417l4.72323 -1.8437c5.46378,-1.98661 2.34921,0.392126 6.30591,-2.1874z"/>
   <path id="_273488888" class="fil7 str3" d="M88.6961 488.383c1.35472,4.77165 -0.940157,2.5748 3.32126,4.27087l95.1969 45.7465c14.2098,29.0894 3.25276,37.4362 10.8402,60.1724 4.07008,12.1937 18.952,38.5287 28.5815,37.9146 0.080315,10.578 -0.961417,18.1524 3.72756,26.5913 -0.172441,-11.7213 -2.06693,-20.8854 0.324803,-32.3433 5.5937,-26.8157 0.514961,-66.0567 -6.72402,-91.3039 -10.0098,-34.9039 -26.2795,-65.028 -56.1106,-77.2701 -11.5346,-2.32795 -37.7988,-5.27362 -52.6961,-3.23858 -9.5126,1.30039 -12.6295,3.30709 -18.0815,10.1894 -3.99331,5.04213 -8.53819,11.8535 -8.37992,19.2709z"/>
   <path id="_273489584" class="fil8 str1" d="M667.03 493.968c0.337795,-14.139 11.0835,-9.94134 14.6173,-15.9531 7.3311,-5.73661 6.15945,-3.16417 7.56378,-13.8697 -13.878,-4.11496 -21.6579,-6.75 -36.1051,-8.7815 -10.0453,-1.41378 -32.1803,-6.78071 -34.0429,-4.27323 2.16496,-2.1815 6.85157,-5.96339 6.33189,-9.51024 -1.33819,-9.14409 5.33622,1.4126 -2.52992,-3.54685l-29.8866 -1.71142c-5.81102,-0.165354 -0.129921,-1.44094 0.577559,-2.09764 9.45118,-8.77323 3.27638,1.20354 6.54921,-11.1106l-17.0539 1.86378c9.74528,-2.03622 7.87323,-5.1815 9.47008,-11.1909l-17.0539 1.86496c6.07677,-0.479528 5.15906,-0.746457 7.57559,-7.46102l-15.1571 0c6.07441,-0.479528 5.15669,-0.744094 7.57205,-7.45866l-17.0539 1.86378 1.34173 0.477165c0.615354,-0.133465 0.550394,1.3748 1.89449,-3.51496 2.49449,-9.07205 -5.48622,5.87953 1.33701,-2.2122l4.89685 -5.94094 -15.1063 1.51772c0.0649606,-0.0661417 0.409843,-0.429921 0.466535,-0.517323 5.21693,-7.9689 -7.87323,-9.10512 -8.50276,-9.16063 -5.5689,-0.477165 -1.42205,0.180709 -9.07795,-1.16457 1.10906,0.0661417 1.08661,2.08583 0.927165,-0.66378 -0.277559,-4.75394 4.77874,1.61339 -2.67638,-4.52008 -2.68228,-2.20512 0.517323,-1.31575 -3.9378,-2.27835l2.82756 0.985039c5.36102,-3.4937 1.83425,1.98307 4.74685,-6.57992l-9.04134 1.39488c-2.9622,0.31063 -4.69134,0.47126 -8.0126,0.47126 1.56732,-0.672047 2.09409,-0.28937 1.82953,-3.49843l-0.520866 -2.53346c-2.56417,-10.2213 -4.80827,-3.83976 -3.84331,-13.2567 25.7846,-3.12638 24.2846,-1.24961 27.1713,-14.3043l18.9591 -1.86378 0 -6.47126 -10.2035 -3.63307c-9.74528,-1.55551 -8.3752,3.51969 -17.2016,-1.81772l-3.2315 -2.2689c-2.83465,-1.91693 -0.790157,-0.0437008 -3.16417,-2.0315l-4.73622 11.8831 -30.0189 -1.86614 -9.16535 9.9437c0.399213,0.452362 1.77638,2.0752 2.78976,2.90669l8.24764 9.67205c0.0531496,0.251575 0.16063,0.824409 0.199606,1.07126l0.15 3.85748c-0.011811,0.184252 -0.137008,0.706299 -0.146457,0.894094 -0.00826772,0.187795 -0.122835,0.711024 -0.122835,0.903543 -0.0177165,11.9504 9.91535,11.0031 9.45,27.078l11.713 15.0543c-0.0224409,0.116929 -0.127559,0.605906 -0.154724,0.714567 -0.0259843,0.0944882 -0.180709,0.519685 -0.210236,0.605906l-0.55748 1.00394c-0.0295276,0.0614173 -0.248031,0.39685 -0.275197,0.458268l-2.34921 6.34606 15.1866 0 -4.10669 5.59606 13.585 1.86614 -5.64685 7.46102 15.7193 0.544488 -8.17559 8.78031 17.6563 0.54685 -8.17795 8.77795 13.272 1.86614 -5.68701 11.1909 36.0201 3.72992 -7.58268 13.0559c2.9185,0 69.8445,11.6516 75.7878,16.6701l4.08425 4.14567z"/>
   <path id="_273489512" class="fil9 str1" d="M478.22 812.089c0.49252,8.47441 -1.62638,4.45866 6.41102,9.54449 7.34409,4.65118 10.0961,9.99567 10.3807,17.752 3.18898,7.44094 22.0051,31.0606 27.7795,38.4272 10.2472,13.0724 19.5106,23.0469 43.1079,24.8421 20.1035,1.52717 41.9917,2.03622 60.4949,-4.18701 12.6177,-4.24724 35.7354,-18.7382 34.8673,-30.5043 -0.0874016,-5.82402 3.52913,-21.7157 5.53346,-27.5587 2.11063,-6.15 13.9949,-16.3228 16.037,-36.026 -14.3917,8.21693 -19.4303,21.1878 -42.5504,31.3051 -15.3165,6.70157 -38.4827,13.3122 -55.7433,15.9886 -39.7465,6.16417 -80.2606,-24.8445 -106.318,-39.5835z"/>
   <path id="_273489128" class="fil10" d="M478.22 812.089c26.0575,14.739 66.5717,45.7476 106.318,39.5835 17.2606,-2.67638 40.4268,-9.28701 55.7433,-15.9886 23.1201,-10.1173 28.1587,-23.0882 42.5504,-31.3051l3.22677 -14.6965c-17.8004,7.15748 -37.4339,9.3874 -57.3732,12.1866 -24.0071,3.37087 -30.5882,9.24567 -54.9307,3.57992 -19.7232,-4.59094 -33.1819,-9.05197 -55.2283,-10.9807 -22.5992,-1.97835 -38.1709,-2.49449 -59.5169,-8.62677 3.95669,8.40827 8.90787,13.1043 15.2339,20.4803l3.97677 5.76732z"/>
   <path id="_273489488" class="fil1 str1" d="M797.277 340.537l-1.35591 2.87953c-2.84055,5.86417 -2.65276,5.34803 -7.01102,9.78543 -0.279921,0.283465 -0.693307,0.667323 -0.970866,0.950787 -5.19331,5.35157 -6.60827,8.76614 -13.7067,12.9508 -5.21575,3.08031 -15.2646,9.85866 -19.5709,14.2075 -3.59409,3.62835 -3.40866,5.24291 -5.67874,7.93701 -1.43976,1.70669 0.152362,0.0330709 -2.41654,2.4874 -6.14882,5.8748 -9.88819,6.39213 -12.7972,11.7874l5.68819 -11.1909 -32.2299 -5.59488c11.2217,-7.03228 8.59016,-4.46102 11.3764,-11.1909l-14.5382 -1.43622c-0.405118,0.00826772 -0.924803,0.0106299 -1.3252,0.0165354 -0.405118,0.00472441 -0.924803,-0.0212598 -1.33701,-0.0188976 -12.3378,0.0850394 -15.4299,2.02205 -26.4071,3.30354 6.44291,-4.75157 7.51535,-4.64528 9.48071,-11.1898l-18.9591 3.72874c5.72953,-3.81496 5.4815,-3.59528 9.47835,-9.3248l-18.9567 3.72992 5.68701 -7.45984 -15.9248 3.57992c1.85315,-3.16535 0.0425197,-7.44331 -1.1374,-11.0409 -6.63543,2.46142 -12.6437,5.82638 -16.4362,4.48346l-2.16969 -1.21654c-12.3992,-6.22795 -15.7181,-2.33031 -34.0642,3.79843 -0.451181,0.148819 -0.985039,0.336614 -1.42087,0.486614 -6.8374,2.33268 -3.91299,2.17441 -11.3126,0.845669l3.4122 -5.33504c0.0602362,-0.106299 0.212598,-0.643701 0.252756,-0.732283 2.84173,-6.24213 0.445276,-1.06772 0.116929,-1.41142l11.3752 -1.86614 0.933071 -6.6437c-0.023622,-0.242126 -0.11811,-0.758268 -0.167717,-0.987402 -0.0933071,-0.427559 -1.18937,-2.74843 -1.32992,-3.04843l-15.7795 3.23858c-5.59843,9.17008 -4.74094,2.68701 -13.3323,8.43425 -3.07205,2.05512 -1.64173,-3.79488 -2.74843,4.23425 -0.500787,3.63898 1.3122,1.98543 4.8437,5.66575l14.3185 10.2c8.06457,-5.56299 6.35906,-5.24055 16.2992,-5.41063l2.65984 11.0055 13.272 -3.54449 -1.41732 9.43346c-0.0720472,0.168898 -0.327165,0.705118 -0.412205,0.865748 -3.3437,6.32008 -0.607087,-1.38189 -2.34921,2.75551 4.73386,-4.61102 8.80039,-5.1189 16.6843,-5.59488 -6.1122,9.22559 -6.11929,6.86811 -7.58386,8.95394l17.0634 -3.35906c-4.03819,6.12874 -4.34882,8.48622 -9.47953,8.95512l17.0634 -1.49409c-9.61063,14.2004 -14.6539,9.4878 4.31693,9.39094 7.59567,-0.362598 9.35079,-1.49764 16.5366,-1.92874 -3.99921,5.98228 -6.57874,12.0697 -13.2697,12.6839 16.3866,0.964961 38.6209,1.09488 53.6728,4.86614l11.576 2.6811c0.13937,-0.338976 0.744094,0.17126 1.10669,0.284646 0.662598,3.08976 0.962598,3.40512 -0.367323,5.59488l29.2134 -14.6339c7.20118,-3 -7.30512,3.66732 2.58189,-1.11969 3.3815,-1.63819 18.0614,-12.7346 19.5059,-16.402 4.14449,-10.526 9.93071,-8.44252 11.9799,-14.465 0.725197,-2.13189 -5.47087,3.08858 2.21929,-4.36654 8.91378,-8.64213 3.9248,-2.32323 15.9803,-16.2307 0.347244,-0.400394 2.36339,-2.71654 2.67402,-3.16063 1.2815,-1.82835 -0.154724,1.03228 1.89921,-3.37559 1.85669,-3.98268 -3.2622,-2.52638 1.73504,-3.84803l-2.57717 -12.9354c-6.42638,4.36772 -3.68976,-0.290551 -4.4622,5.35512z"/>
   <path id="_273489272" class="fil11 str1" d="M530.282 319.209c2.37402,1.9878 0.329528,0.114567 3.16417,2.0315l3.2315 2.2689c8.82638,5.3374 7.4563,0.262205 17.2016,1.81772l10.2035 3.63307c20.1732,-2.80276 18.1429,-10.6807 25.9913,-6.3378l1.4374 1.20945c0.140551,0.129921 0.512598,0.596457 0.629528,0.719291 0.11811,0.12874 0.507874,0.659055 0.6,0.768898 0.092126,0.108661 0.327165,0.572835 0.565748,0.796063l17.3858 -4.6311c21.6673,-6.98504 62.6988,-11.8181 77.0657,-5.74488 0.590551,0.249213 1.06535,0.530315 1.60039,0.784252 0.556299,0.264567 1.17402,0.664961 1.62874,0.896457 0.465354,0.237402 1.12323,0.601181 1.64764,0.957874 7.31575,2.33504 5.37874,1.79764 12.6224,-0.654331 15.3071,-5.18268 3.27165,-4.17638 17.9764,-10.428l12.5043 -6.34724c19.8366,-8.81102 1.04528,-5.25354 31.578,-15.7831 18.2268,-6.28819 17.7272,-11.4047 25.5697,-13.0134l-2.82165 -11.3268c-0.304724,-0.421654 -0.959055,-1.63701 -1.02992,-1.17283l-1.19646 -0.654331c-11.7732,1.49173 -28.5425,10.3961 -39.0602,15.6791l-2.64331 1.12795c-0.402756,0.184252 -0.924803,0.369685 -1.32756,0.555118l-11.7059 5.24291c-10.2472,3.9626 -13.8094,11.602 -19.2555,14.5559 -7.80827,4.23425 -4.77638,-1.30984 -12.9839,5.97047 -19.5295,17.3303 -12.7098,3.99803 -39.9803,2.42953 -13.226,-0.759449 -23.7791,-0.590551 -36.0213,-1.3937 -34.8555,-2.29134 -2.40945,4.54016 -30.822,0.539764 -3.11929,-0.440551 -5.69291,-0.839764 -8.9374,-0.170079 -10.7197,2.21575 1.17992,2.93622 -20.4827,3.25866l0 -2.72835c6.68504,-2.02795 5.90315,-2.08583 10.3547,-7.24016l-17.0657 -0.0661417 -0.337795 -5.03858 9.48071 0.112205c-5.91614,0 -8.7815,-0.382677 -13.0075,-1.94528 -3.78898,-1.39843 -3.40394,-1.51063 -5.22402,-2.64094l-8.70591 -6.15236c-4.23189,-2.18976 -5.99409,-1.42087 -10.4008,-5.01378l-5.59843 -5.70591c-4.93346,-4.59094 -7.85079,-10.2638 -10.565,-15.874 -2.01496,-4.16575 -2.26181,-8.03858 -3.31417,-17.6764l7.84606 -1.47165c-4.89449,-3.29528 -15.9626,-3.60591 -23.1803,-5.44606l-6.35315 2.66575c1.3311,0.588189 2.4437,0.124016 4.29094,5.94567l0.660236 2.54409c0.0791339,0.43937 0.172441,1.00039 0.231496,1.45866l0.514961 8.12717c0.0602362,0.301181 0.252756,0.790157 0.325984,1.09488 1.87677,7.85315 1.23898,5.67402 -0.335433,16.2661 4.11614,0.122835 2.56654,-0.552756 5.53583,0.993307l1.52717 1.18583c2.80276,3.16063 3.58701,16.8827 4.80236,21.9909 1.62638,6.81378 5.38583,3.22087 -0.635433,15.4276 4.70197,2.12126 9.4937,0.394488 11.1059,10.728l0.154724 1.9252 13.5567 -1.05118z"/>
   <path id="_273488504" class="fil1 str1" d="M692.635 318.379c-13.0748,0.562205 -24.5917,1.87323 -36.222,5.71417l-20.1933 6.4689c-3.78189,1.35472 -6.34843,2.27717 -10.0087,3.29882 -12.9437,3.60945 -17.4201,8.68465 -11.1496,5.5252l6.69921 4.94764c1.83189,-0.33189 15.9709,-7.12205 28.7209,-9.83386 13.2945,-2.82756 13.0122,-1.53898 22.1906,2.07756 7.65827,3.01654 7.84252,-1.54843 20.7602,-1.54843l-5.68819 5.1815 20.8547 -3.31772 -5.68819 8.9126 20.8559 -3.31772 -9.48071 10.7787c18.1051,-2.00197 14.922,-2.47087 32.4957,-0.473622 7.90748,0.898819 15.6531,0.0661417 15.9709,6.52087l-0.535039 2.63031c-1.29449,4.89685 -0.164173,-2.13898 -2.42953,4.99843 12.7358,-9.12402 5.99173,-4.17874 14.7343,-12.8953 4.64528,-4.63465 9.18661,-8.02087 12.8657,-13.4232l9.88937 -0.0874016c0.772441,-5.64567 -1.96417,-0.987402 4.4622,-5.35512 -0.116929,-21.2646 -5.79567,-41.622 -8.85354,-63.0283 -7.84252,1.60866 -7.34291,6.7252 -25.5697,13.0134 -30.5327,10.5295 -11.7413,6.97205 -31.578,15.7831l-12.5043 6.34724c-14.7047,6.25157 -2.66929,5.24528 -17.9764,10.428 -7.2437,2.45197 -5.30669,2.98937 -12.6224,0.654331z"/>
   <path id="_273488312" class="fil1 str1" d="M593.307 326.117c-3.01181,3.08386 0.0425197,0.966142 -5.22165,3.45827 -3.66142,1.7315 -2.5252,0.244488 -5.40118,2.10591 -3.34016,2.15906 -4.06772,5.60433 -4.60984,9.36496l15.7795 -3.23858c0.140551,0.3 1.23661,2.62087 1.32992,3.04843 0.0496063,0.229134 0.144094,0.745276 0.167717,0.987402l-0.933071 6.6437 -11.3752 1.86614c0.328346,0.343701 2.7248,-4.83071 -0.116929,1.41142 -0.0401575,0.0885827 -0.19252,0.625984 -0.252756,0.732283l-3.4122 5.33504c7.39961,1.32874 4.4752,1.48701 11.3126,-0.845669 0.435827,-0.15 0.969685,-0.337795 1.42087,-0.486614 18.3461,-6.12874 21.665,-10.0264 34.0642,-3.79843l2.16969 1.21654c3.79252,1.34291 9.80079,-2.02205 16.4362,-4.48346 1.17992,3.59764 2.99055,7.87559 1.1374,11.0409l15.9248 -3.57992 -5.68701 7.45984 18.9567 -3.72992c-3.99685,5.72953 -3.74882,5.50984 -9.47835,9.3248l18.9591 -3.72874c-1.96535,6.54449 -3.0378,6.43819 -9.48071,11.1898 10.9772,-1.2815 14.0693,-3.2185 26.4071,-3.30354 0.412205,-0.0023622 0.93189,0.023622 1.33701,0.0188976 0.400394,-0.00590551 0.920079,-0.00826772 1.3252,-0.0165354l14.5382 1.43622c-2.78622,6.72992 -0.154724,4.15866 -11.3764,11.1909l32.2299 5.59488 -5.68819 11.1909c2.90906,-5.39528 6.64843,-5.9126 12.7972,-11.7874 2.5689,-2.45433 0.976772,-0.780709 2.41654,-2.4874 2.27008,-2.69409 2.08465,-4.30866 5.67874,-7.93701 4.3063,-4.34882 14.3551,-11.1272 19.5709,-14.2075 7.09843,-4.18465 8.51339,-7.59921 13.7067,-12.9508 0.277559,-0.283465 0.690945,-0.667323 0.970866,-0.950787 4.35827,-4.4374 4.17047,-3.92126 7.01102,-9.78543l1.35591 -2.87953 -9.88937 0.0874016c-3.67913,5.40236 -8.22047,8.78858 -12.8657,13.4232 -8.74252,8.71654 -1.99843,3.77126 -14.7343,12.8953 2.26535,-7.1374 1.13504,-0.101575 2.42953,-4.99843l0.535039 -2.63031c-0.317717,-6.45472 -8.06339,-5.62205 -15.9709,-6.52087 -17.5736,-1.99724 -14.3906,-1.52835 -32.4957,0.473622l9.48071 -10.7787 -20.8559 3.31772 5.68819 -8.9126 -20.8547 3.31772 5.68819 -5.1815c-12.9177,0 -13.102,4.56496 -20.7602,1.54843 -9.17835,-3.61654 -8.89606,-4.90512 -22.1906,-2.07756 -12.75,2.71181 -26.889,9.50197 -28.7209,9.83386l-6.69921 -4.94764c-6.27047,3.15945 -1.79409,-1.91575 11.1496,-5.5252 3.66024,-1.02165 6.22677,-1.94409 10.0087,-3.29882l20.1933 -6.4689c11.6303,-3.84094 23.1472,-5.15197 36.222,-5.71417 -0.524409,-0.356693 -1.18228,-0.720472 -1.64764,-0.957874 -0.454724,-0.231496 -1.07244,-0.63189 -1.62874,-0.896457 -0.535039,-0.253937 -1.00984,-0.535039 -1.60039,-0.784252 -14.3669,-6.07323 -55.3984,-1.24016 -77.0657,5.74488l-17.3858 4.6311z"/>
   <path id="_273488720" class="fil2" d="M334.73 525.647c8.21575,-5.0374 16.2543,-18.3567 26.5051,-26.0976 10.3524,-7.81535 24.7323,-13.1315 41.6539,-13.9157l85.3689 22.8602c12.3378,-7.86732 31.4256,-29.5984 41.8287,-41.0315 -36.5244,-3.6685 -103.746,-13.0217 -140.581,-9.42874 -10.6169,1.03701 -10.8,6.25866 -21.463,20.2181 -8.40709,11.0055 -28.6406,35.7933 -33.313,47.3953z"/>
   <path id="_273488192" class="fil12" d="M681.647 478.015c-3.53386,6.01181 -14.2795,1.81417 -14.6173,15.9531l12.1559 24.8291c7.37598,-2.35984 55.3701,-27.8291 67.4256,-26.1118l60.9496 30.2291 -14.3846 -36.3886 -13.063 -27.3839c-34.0323,1.45866 -67.3453,12.3319 -98.4661,18.8728z"/>
   <path id="_273488120" class="fil13 str1" d="M460.759 774.476c-2.90433,0.755906 -8.46496,1.94764 -10.6122,2.90787 -6.42165,2.87717 -2.98228,0.46063 -6.19134,5.47441l15.0543 2.98346c21.3461,6.13228 36.9177,6.64843 59.5169,8.62677 22.0465,1.92874 35.5051,6.38976 55.2283,10.9807 24.3425,5.66575 30.9236,-0.209055 54.9307,-3.57992 19.9394,-2.79921 39.5728,-5.02913 57.3732,-12.1866l24.385 -7.95236c-2.24646,-6.0685 -1.04173,-3.2185 -4.15394,-5.03504 -9.98031,7.48937 -72.0154,3.21969 -96.6969,10.8118 -1.33228,-4.04882 -0.655512,-4.8378 -4.9311,-4.96299 -5.67756,-0.165354 -5.82165,2.61024 -10.1079,-1.35118 -6.10157,-5.63976 2.16142,-16.2224 -3.91772,-23.9563l-5.86063 27.7039 -109.387 -5.87953c-8.43661,-0.941339 -10.3205,-0.712205 -14.6303,-4.58504z"/>
   <path id="_273488576" class="fil14" d="M460.759 774.476c4.30984,3.87283 6.1937,3.6437 14.6303,4.58504l109.387 5.87953 5.86063 -27.7039c6.07913,7.73386 -2.18386,18.3165 3.91772,23.9563 4.28622,3.96142 4.43031,1.18583 10.1079,1.35118 4.27559,0.125197 3.59882,0.914173 4.9311,4.96299 24.6815,-7.59213 86.7165,-3.32244 96.6969,-10.8118 -7.01102,-15.789 -20.8087,-1.8248 -32.7555,0.461811 -15.2469,2.92087 -14.6374,-9.64843 -31.9606,-14.4555 -12.815,-0.48189 -15.6614,5.49685 -32.0965,-0.101575 -10.1421,-3.45354 -13.572,-9.52087 -25.7268,-9.88346 -17.3858,2.16969 -32.1083,13.7563 -56.0728,17.0102 -11.498,1.5626 -58.3654,5.91732 -66.9189,4.74921z"/>
   <path id="_273487520" class="fil12 str4" d="M443.955 782.858c3.20906,-5.01378 -0.230315,-2.59724 6.19134,-5.47441 2.14724,-0.960236 7.70787,-2.15197 10.6122,-2.90787 8.55354,1.16811 55.4209,-3.18661 66.9189,-4.74921 23.9646,-3.25394 38.687,-14.8406 56.0728,-17.0102l0 -1.13031c-31.6382,0.145276 -84.9768,2.77795 -114.194,-0.643701 -20.5606,-2.40945 -28.9701,-10.3382 -42.8823,5.10472 -8.74134,9.70157 -11.8358,29.3717 -1.97244,40.9606l19.2531 -14.1496z"/>
   <path id="_273487856" class="fil15 str1" d="M780.113 459.142l13.063 27.3839c1.95709,2.0622 7.13031,6.49724 7.14803,6.51496 4.80236,5.20748 2.57244,-1.03819 3.22441,7.83071l7.86614 0 2.23701 -51.2114c-3.60709,-16.0417 -3.21142,-71.6799 -7.95591,-81.7299 -5.8689,19.0488 -5.03858,5.41417 -9.34606,18.6697 -3.22087,9.91299 -3.36142,2.58425 -8.62559,10.761 9.37559,7.09606 2.82283,8.32913 -0.898819,13.552 -7.65118,10.7421 2.35394,-0.242126 -3.82913,9.51496 -3.83268,6.05551 -5.11654,2.29724 -4.25906,9.64252l1.17638 6.0248c-0.204331,1.51299 -0.00708661,0.62126 -1.58386,4.13504 -5.80157,12.9378 -1.3878,6.50433 0.934252,9.90354l0.709843 3.64134c0,0 0.25748,2.64685 0.13937,5.36693z"/>
   <path id="_273487448" class="fil16" d="M583.75 751.586l0 1.13031c12.1547,0.362598 15.5846,6.42992 25.7268,9.88346 16.435,5.59843 19.2815,-0.380315 32.0965,0.101575 1.66654,-4.56142 -0.80315,-2.12126 4.79055,-6.95906 3.85512,-3.33307 1.60512,-1.73976 6.83622,-3.58583 10.8083,-26.0433 45.2303,-15.8232 46.8402,-38.3492 0.797244,-11.1437 -22.5425,-44.2181 -28.6205,-54.9496 -10.5756,-18.665 -16.9465,-38.8476 -22.7657,-61.4563l-27.7665 -57.1642c13.3075,13.2555 14.4425,26.2677 19.4457,46.5189 9.84567,39.8622 17.4862,58.6004 39.2339,92.0669 7.52953,11.5902 21.8634,34.4917 -0.304724,42.2126 -30.6756,10.6843 -20.2382,10.6228 -39.4441,26.4709 -14.9398,12.3295 -34.4799,8.0622 -49.0689,-1.87559 -22.2508,-15.1535 -21.9189,-11.0079 -51.1441,-14.8169l-39.4724 -26.1484c-0.314173,19.5957 15.5291,29.8382 33.8362,33.5787 9.72283,1.9878 42.4984,2.78976 49.5945,9.15118 5.96339,5.34921 4.37835,1.05827 0.186614,4.19055z"/>
   <path id="_273487400" class="fil16" d="M811.415 500.871c1.89213,9.7878 0.356693,4.30039 4.64173,5.55354 3.7311,-9.22087 8.1378,-18.0035 17.2512,-20.8654 5.48386,3.3874 15.4512,22.8201 16.2165,29.263 5.87126,4.49173 9.79961,13.4209 12.8315,20.1874 1.05591,-2.53465 -6.89055,-47.8406 -8.90197,-55.2555 -2.52047,-9.30236 -29.4094,-27.1228 -37.2083,-30.0945l-2.5937 0 -2.23701 51.2114z"/>
   <path id="_273488072" class="fil12 str4" d="M641.574 762.702c17.3232,4.80709 16.7138,17.3764 31.9606,14.4555 11.9469,-2.28661 25.7445,-16.2508 32.7555,-0.461811 3.1122,1.81654 1.90748,-1.03346 4.15394,5.03504 5.76614,1.37008 4.09134,3.01181 12.0969,2.34213 4.99252,-14.9398 -6.5752,-30.4441 -18.4453,-32.2535 -10.0205,-1.52598 -40.4445,-0.814961 -50.8949,0.337795 -5.2311,1.84606 -2.9811,0.252756 -6.83622,3.58583 -5.5937,4.8378 -3.12402,2.39764 -4.79055,6.95906z"/>
   <path id="_273487640" class="fil13 str1" d="M162.035 643.121c-4.93701,-9.39331 -17.589,-18.4913 -28.187,-39.3071 -4.02638,-7.9122 -2.47913,-19.6476 0.539764,-28.9854 2.15669,-6.67323 9.04606,-10.0961 18.4287,-14.9409 -7.0063,-6.97795 -21.111,-22.8921 -28.5295,-26.7413l-4.31811 71.3799c7.47283,22.1894 18.0709,33.2657 42.0661,38.5949z"/>
   <path id="_273486584" class="fil17" d="M661.261 867.964c0.86811,11.7661 -22.2496,26.2571 -34.8673,30.5043 -18.5031,6.22323 -40.3913,5.71417 -60.4949,4.18701 -23.5972,-1.79528 -32.8606,-11.7697 -43.1079,-24.8421 -5.77441,-7.36654 -24.5906,-30.9862 -27.7795,-38.4272 0.864567,6.82677 19.6535,35.3988 25.1374,42.8421 11.9752,16.2579 15.4961,24.1724 43.865,26.1791 21.776,1.54016 45.0886,1.84606 65.0988,-5.3752 14.8547,-5.35984 33.4665,-17.8453 32.1484,-35.0681z"/>
   <path id="_273487280" class="fil12 str4" d="M434.98 539.957c-21.5835,7.22008 -11.0776,35.7236 11.987,28.9665 20.9362,-6.13228 11.1378,-36.7028 -11.987,-28.9665z"/>
   <path id="_273486608" class="fil12 str4" d="M687.249 528.84c-21.9165,7.13976 -11.3303,35.9102 11.9197,28.9394 20.5547,-6.16063 11.0917,-36.4358 -11.9197,-28.9394z"/>
   <path id="_273486824" class="fil18 str1" d="M390.694 774.913c1.05945,-3.63307 5.89606,-12.0213 8.05276,-16.5531 4.6063,-9.67677 4.28386,-6.96142 11.928,-12.4535 23.5524,-16.9181 39.3531,-23.5972 55.7953,-42.1146 8.22638,-9.27047 18.1157,-15.0732 23.6598,-25.6819l-56.276 43.9654c-35.322,24.4972 -41.1709,19.4787 -43.1598,52.8378z"/>
   <path id="_273487184" class="fil19 str2" d="M616.401 232.155c-0.0791339,8.48386 -2.8311,0.438189 22.7031,16.3878 0.457087,-0.320079 1.15984,-1.30276 1.41024,-0.896457l28.4929 -17.9764c6.64961,-4.78937 10.2909,-2.76024 4.12677,-7.59803l-56.7331 10.0831z"/>
   <path id="_273487160" class="fil20 str1" d="M816.057 506.425c6.51378,9.04606 15.7417,9.19961 30.9283,13.2638 6.20787,-5.43661 1.53189,3.35315 2.53937,-4.86614 -0.765354,-6.44291 -10.7327,-25.8756 -16.2165,-29.263 -9.11339,2.86181 -13.5201,11.6445 -17.2512,20.8654z"/>
   <path id="_273486632" class="fil18 str1" d="M712.416 710.868c6.23622,13.4504 20.5654,17.6575 29.5335,37.0724 3.28228,7.10197 2.31142,9.32953 7.94055,12.2528l-37.474 -49.3252z"/>
  </g>
 </g>
</svg>
